<?xml version="1.0" encoding="UTF-8"?>
<svg width="314px" height="169px" viewBox="0 0 314 169" version="1.1" xmlns="http://www.w3.org/2000/svg" xmlns:xlink="http://www.w3.org/1999/xlink">
    <!-- Generator: Sketch 45.2 (43514) - http://www.bohemiancoding.com/sketch -->
    <title>logo</title>
    <desc>Created with Sketch.</desc>
    <defs>
        <polygon id="path-1" points="313.038 168.94 0.06 168.94 0.06 0.767 156.549 0.767 313.038 0.767 313.038 168.94"></polygon>
    </defs>
    <g id="Page-1" stroke="none" stroke-width="1" fill="none" fill-rule="evenodd">
        <g id="logo">
            <g id="Group-4">
                <mask id="mask-2" fill="white">
                    <use xlink:href="#path-1"></use>
                </mask>
                <g id="Clip-2"></g>
                <path d="M33.695,6.126 L37.979,4.474 C39.406,3.991 40.121,3.267 40.121,2.299 C40.121,1.278 39.379,0.767 37.896,0.767 C37.567,0.767 36.88,0.798 35.837,0.859 L30.317,1.317 C27.406,1.5 23.919,1.591 19.856,1.591 C13.21,1.591 7.882,1.348 3.875,0.859 C3.325,0.798 2.831,0.767 2.392,0.767 C0.744,0.767 -0.052,1.358 0.003,2.54 C0.057,3.507 0.936,4.152 2.639,4.474 C7.747,5.299 11.083,6.894 12.648,9.26 C14.212,11.626 14.996,16.218 14.996,23.038 L14.996,93.661 C14.996,100.648 14.391,105.227 13.184,107.399 C11.975,109.571 9.283,111.016 5.11,111.731 C3.408,111.999 2.557,112.617 2.557,113.582 C2.557,114.708 3.297,115.273 4.78,115.273 C5.824,115.273 7.142,115.191 8.734,115.026 L18.455,114.448 L30.401,114.631 C34.519,114.631 37.429,114.753 39.132,114.998 C40.395,115.181 41.439,115.273 42.262,115.273 C43.964,115.273 44.816,114.626 44.816,113.335 C44.816,112.367 43.443,111.695 40.697,111.319 C37.237,110.823 34.696,109.998 33.077,108.842 C31.457,107.686 30.097,105.703 28.999,102.896 C28.065,100.419 27.599,95.328 27.599,87.621 L27.599,25.859 C27.599,14.245 29.631,7.667 33.695,6.126 L33.695,6.126 Z M82.875,20.398 C82.875,11.762 85.346,6.839 90.289,5.629 L93.173,4.969 C94.764,4.592 95.562,3.815 95.562,2.634 C95.562,1.829 94.903,1.426 93.588,1.426 C93.313,1.426 92.136,1.482 90.054,1.591 C85.942,1.867 81.366,2.003 76.325,2.003 C71.665,2.003 67.473,1.838 63.746,1.509 C61.553,1.29 59.827,1.179 58.568,1.179 C56.704,1.179 55.773,1.797 55.773,3.03 C55.773,3.835 56.432,4.371 57.75,4.639 L61.457,5.382 C67.388,6.591 70.354,10.854 70.354,18.169 L70.354,91.929 L70.271,95.725 C70.271,101.004 69.621,104.759 68.321,106.986 C67.021,109.214 64.464,110.904 60.648,112.06 C59.155,112.489 58.409,113.131 58.409,113.989 C58.409,115.009 59.096,115.491 60.471,115.438 C61.624,115.382 63.164,115.218 65.088,114.943 C69.649,114.283 75.312,113.954 82.074,113.954 C87.901,113.954 93.426,114.148 98.648,114.53 L107.555,115.191 C109.862,115.355 111.897,115.438 113.656,115.438 C124.264,115.438 131.934,112.454 136.662,106.49 C140.015,102.168 141.802,98.201 142.022,94.589 C142.076,93.495 141.664,92.947 140.787,92.947 C140.017,92.947 139.248,93.69 138.48,95.172 C136.389,99.182 131.563,102.408 124.001,104.852 C116.438,107.296 107.514,108.518 97.229,108.518 C90.244,108.518 86.118,107.912 84.855,106.702 C83.589,105.493 82.958,101.587 82.958,94.985 L82.875,92.099 L82.875,20.398 Z M180.904,6.126 L185.188,4.474 C186.615,3.991 187.33,3.267 187.33,2.299 C187.33,1.278 186.588,0.767 185.105,0.767 C184.776,0.767 184.088,0.798 183.046,0.859 L177.527,1.317 C174.615,1.5 171.129,1.591 167.065,1.591 C160.42,1.591 155.092,1.348 151.084,0.859 C150.534,0.798 150.04,0.767 149.601,0.767 C147.954,0.767 147.157,1.358 147.212,2.54 C147.266,3.507 148.145,4.152 149.848,4.474 C154.956,5.299 158.292,6.894 159.857,9.26 C161.421,11.626 162.205,16.218 162.205,23.038 L162.205,93.661 C162.205,100.648 161.6,105.227 160.393,107.399 C159.184,109.571 156.493,111.016 152.319,111.731 C150.617,111.999 149.766,112.617 149.766,113.582 C149.766,114.708 150.507,115.273 151.99,115.273 C153.033,115.273 154.351,115.191 155.943,115.026 L165.665,114.448 L177.609,114.631 C181.728,114.631 184.638,114.753 186.341,114.998 C187.605,115.181 188.649,115.273 189.472,115.273 C191.173,115.273 192.025,114.626 192.025,113.335 C192.025,112.367 190.652,111.695 187.906,111.319 C184.446,110.823 181.905,109.998 180.286,108.842 C178.666,107.686 177.306,105.703 176.209,102.896 C175.275,100.419 174.808,95.328 174.808,87.621 L174.808,25.859 C174.808,14.245 176.839,7.667 180.904,6.126 L180.904,6.126 Z M222.258,9.673 C222.258,8.243 222.547,7.238 223.123,6.661 C223.699,6.085 225.112,5.383 227.365,4.557 C228.464,4.128 229.013,3.538 229.013,2.788 C229.013,1.771 228.272,1.261 226.789,1.261 C226.349,1.261 225.58,1.317 224.483,1.426 C222.121,1.646 220.363,1.756 219.21,1.756 L213.691,1.838 L205.865,1.756 C201.252,1.756 198.478,1.702 197.545,1.591 C196.391,1.482 195.596,1.426 195.156,1.426 C193.619,1.426 192.849,1.965 192.849,3.041 C192.849,3.688 193.11,4.133 193.632,4.375 C194.154,4.617 195.843,5.007 198.698,5.545 C201.443,6.039 203.612,7.167 205.206,8.925 C206.798,10.684 208.583,13.789 210.561,18.24 L252.326,115.023 C253.52,117.77 254.686,119.145 255.825,119.145 C256.91,119.145 258.024,117.799 259.163,115.111 L300.105,19.21 L302.329,13.859 C304.36,8.975 307.355,5.792 311.309,4.31 C312.462,3.916 313.038,3.324 313.038,2.534 C313.038,1.577 312.487,1.097 311.387,1.097 L304.365,1.179 L302.3,1.179 L298.582,1.261 L295.196,1.261 C294.369,1.261 291.92,1.152 287.845,0.932 C286.632,0.878 285.834,0.85 285.449,0.85 C283.686,0.85 282.777,1.361 282.723,2.382 C282.668,3.295 284.178,4.048 287.254,4.639 C289.779,5.135 291.456,5.754 292.278,6.497 C293.103,7.238 293.515,8.518 293.515,10.333 C293.515,15.616 289.628,27.472 281.855,45.901 L263.79,88.815 L262.478,91.868 C261.055,95.005 260.068,96.572 259.522,96.572 C258.862,96.628 258.15,95.748 257.382,93.931 L225.713,21.227 C223.409,15.89 222.258,12.039 222.258,9.673 L222.258,9.673 Z" id="Fill-1" fill="#997055" mask="url(#mask-2)"></path>
                <path d="M40.832,168.53 L42.711,168.53 L42.711,150.052 L40.832,150.052 L40.832,168.53 Z M49.966,150.052 L47.617,150.052 L47.617,168.53 L49.496,168.53 L49.496,152.636 L49.548,152.636 L60.301,168.53 L62.65,168.53 L62.65,150.052 L60.771,150.052 L60.771,165.79 L60.719,165.79 L49.966,150.052 Z M73.48,151.723 L79.666,151.723 L79.666,150.052 L65.416,150.052 L65.416,151.723 L71.601,151.723 L71.601,168.53 L73.48,168.53 L73.48,151.723 Z M84.311,159.735 L93.263,159.735 L93.263,158.065 L84.311,158.065 L84.311,151.723 L93.889,151.723 L93.889,150.052 L82.432,150.052 L82.432,168.53 L94.203,168.53 L94.203,166.86 L84.311,166.86 L84.311,159.735 Z M99.762,159.892 L102.894,159.892 L108.009,168.53 L110.305,168.53 L104.903,159.735 C105.582,159.666 106.208,159.509 106.782,159.265 C107.357,159.022 107.852,158.695 108.27,158.286 C108.688,157.878 109.017,157.396 109.261,156.838 C109.505,156.281 109.627,155.663 109.627,154.985 C109.627,154.081 109.47,153.315 109.157,152.689 C108.844,152.062 108.404,151.553 107.839,151.161 C107.274,150.77 106.603,150.487 105.83,150.314 C105.055,150.14 104.215,150.052 103.311,150.052 L97.882,150.052 L97.882,168.53 L99.762,168.53 L99.762,159.892 Z M99.762,151.67 L103.102,151.67 C103.797,151.67 104.433,151.732 105.007,151.853 C105.582,151.975 106.068,152.166 106.469,152.427 C106.869,152.689 107.182,153.027 107.408,153.445 C107.634,153.862 107.748,154.376 107.748,154.985 C107.748,156.081 107.338,156.903 106.521,157.451 C105.703,157.999 104.538,158.274 103.024,158.274 L99.762,158.274 L99.762,151.67 Z M113.516,168.53 L115.395,168.53 L115.395,150.052 L113.516,150.052 L113.516,168.53 Z M137.839,155.402 C137.352,154.22 136.678,153.197 135.817,152.336 C134.956,151.475 133.938,150.801 132.763,150.314 C131.589,149.826 130.314,149.582 128.94,149.582 C127.565,149.582 126.291,149.826 125.116,150.314 C123.942,150.801 122.924,151.475 122.063,152.336 C121.202,153.197 120.527,154.22 120.04,155.402 C119.553,156.586 119.31,157.882 119.31,159.291 C119.31,160.7 119.553,161.997 120.04,163.18 C120.527,164.363 121.202,165.385 122.063,166.246 C122.924,167.108 123.942,167.782 125.116,168.269 C126.291,168.756 127.565,169 128.94,169 C130.314,169 131.589,168.756 132.763,168.269 C133.938,167.782 134.956,167.108 135.817,166.246 C136.678,165.385 137.352,164.363 137.839,163.18 C138.326,161.997 138.57,160.7 138.57,159.291 C138.57,157.882 138.326,156.586 137.839,155.402 L137.839,155.402 Z M136.065,162.379 C135.716,163.353 135.212,164.203 134.551,164.932 C133.889,165.662 133.085,166.243 132.137,166.678 C131.188,167.112 130.123,167.329 128.94,167.329 C127.756,167.329 126.691,167.112 125.743,166.678 C124.794,166.243 123.99,165.662 123.329,164.932 C122.667,164.203 122.163,163.353 121.815,162.379 C121.466,161.406 121.293,160.382 121.293,159.304 C121.293,158.228 121.466,157.202 121.815,156.23 C122.163,155.257 122.667,154.402 123.329,153.663 C123.99,152.925 124.794,152.339 125.743,151.904 C126.691,151.47 127.756,151.253 128.94,151.253 C130.123,151.253 131.188,151.47 132.137,151.904 C133.085,152.339 133.889,152.925 134.551,153.663 C135.212,154.402 135.716,155.257 136.065,156.23 C136.413,157.202 136.587,158.228 136.587,159.304 C136.587,160.382 136.413,161.406 136.065,162.379 L136.065,162.379 Z M144.364,159.892 L147.496,159.892 L152.611,168.53 L154.908,168.53 L149.506,159.735 C150.184,159.666 150.811,159.509 151.385,159.265 C151.959,159.022 152.455,158.695 152.873,158.286 C153.29,157.878 153.62,157.396 153.864,156.838 C154.108,156.281 154.23,155.663 154.23,154.985 C154.23,154.081 154.073,153.315 153.76,152.689 C153.447,152.062 153.007,151.553 152.442,151.161 C151.876,150.77 151.206,150.487 150.432,150.314 C149.658,150.14 148.818,150.052 147.914,150.052 L142.485,150.052 L142.485,168.53 L144.364,168.53 L144.364,159.892 Z M144.364,151.67 L147.705,151.67 C148.4,151.67 149.036,151.732 149.61,151.853 C150.184,151.975 150.671,152.166 151.072,152.427 C151.472,152.689 151.785,153.027 152.011,153.445 C152.237,153.862 152.351,154.376 152.351,154.985 C152.351,156.081 151.941,156.903 151.124,157.451 C150.306,157.999 149.14,158.274 147.627,158.274 L144.364,158.274 L144.364,151.67 Z M169.941,151.723 L176.127,151.723 L176.127,150.052 L161.877,150.052 L161.877,151.723 L168.062,151.723 L168.062,168.53 L169.941,168.53 L169.941,151.723 Z M180.772,159.735 L189.724,159.735 L189.724,158.065 L180.772,158.065 L180.772,151.723 L190.351,151.723 L190.351,150.052 L178.893,150.052 L178.893,168.53 L190.663,168.53 L190.663,166.86 L180.772,166.86 L180.772,159.735 Z M195.335,150.052 L192.986,150.052 L199.172,158.821 L192.386,168.53 L194.734,168.53 L200.346,160.204 L205.983,168.53 L208.332,168.53 L201.547,158.848 L207.68,150.052 L205.436,150.052 L200.399,157.517 L195.335,150.052 Z M217.205,151.723 L223.391,151.723 L223.391,150.052 L209.141,150.052 L209.141,151.723 L215.326,151.723 L215.326,168.53 L217.205,168.53 L217.205,151.723 Z M226.157,168.53 L228.036,168.53 L228.036,150.052 L226.157,150.052 L226.157,168.53 Z M234.821,150.052 L232.942,150.052 L232.942,168.53 L243.435,168.53 L243.435,166.86 L234.821,166.86 L234.821,150.052 Z M248.132,159.735 L257.084,159.735 L257.084,158.065 L248.132,158.065 L248.132,151.723 L257.71,151.723 L257.71,150.052 L246.253,150.052 L246.253,168.53 L258.024,168.53 L258.024,166.86 L248.132,166.86 L248.132,159.735 Z M272.142,151.827 C271.69,151.218 271.021,150.692 270.132,150.248 C269.245,149.804 268.175,149.582 266.922,149.582 C266.243,149.582 265.557,149.679 264.86,149.869 C264.165,150.062 263.529,150.365 262.955,150.783 C262.381,151.2 261.916,151.732 261.559,152.375 C261.203,153.019 261.025,153.784 261.025,154.672 C261.025,155.507 261.167,156.211 261.454,156.785 C261.741,157.36 262.12,157.843 262.59,158.235 C263.06,158.626 263.591,158.944 264.183,159.187 C264.774,159.431 265.374,159.649 265.983,159.839 C266.574,160.031 267.141,160.223 267.679,160.413 C268.219,160.606 268.697,160.844 269.114,161.131 C269.532,161.418 269.867,161.776 270.119,162.201 C270.372,162.628 270.498,163.163 270.498,163.806 C270.498,164.399 270.372,164.915 270.119,165.36 C269.867,165.803 269.545,166.178 269.153,166.482 C268.762,166.786 268.323,167.013 267.836,167.16 C267.349,167.308 266.87,167.382 266.4,167.382 C265.426,167.382 264.578,167.16 263.856,166.716 C263.134,166.273 262.573,165.721 262.172,165.059 L260.554,166.26 C260.885,166.712 261.268,167.112 261.702,167.46 C262.138,167.809 262.608,168.096 263.111,168.321 C263.617,168.547 264.148,168.717 264.704,168.83 C265.261,168.944 265.817,169 266.374,169 C267.105,169 267.832,168.896 268.554,168.687 C269.275,168.478 269.917,168.156 270.48,167.721 C271.041,167.286 271.498,166.734 271.85,166.064 C272.2,165.395 272.377,164.599 272.377,163.676 C272.377,162.754 272.212,161.992 271.883,161.392 C271.553,160.792 271.128,160.296 270.608,159.904 C270.087,159.513 269.501,159.196 268.851,158.952 C268.199,158.708 267.553,158.483 266.912,158.274 C266.391,158.1 265.893,157.926 265.415,157.751 C264.938,157.578 264.513,157.357 264.14,157.086 C263.766,156.817 263.467,156.49 263.241,156.108 C263.016,155.725 262.903,155.237 262.903,154.646 C262.903,154.055 263.021,153.541 263.255,153.106 C263.49,152.671 263.8,152.31 264.183,152.023 C264.565,151.736 264.991,151.523 265.461,151.383 C265.931,151.244 266.392,151.174 266.844,151.174 C267.732,151.174 268.488,151.344 269.114,151.684 C269.741,152.023 270.254,152.471 270.654,153.027 L272.142,151.827 L272.142,151.827 Z" id="Fill-3" fill="#997055" mask="url(#mask-2)"></path>
            </g>
            <polygon id="Fill-5" fill="#997055" points="0.087 159.485 28.616 159.485 28.616 158.086 0.087 158.086"></polygon>
            <polygon id="Fill-6" fill="#997055" points="283.555 159.485 313.047 159.485 313.047 158.086 283.555 158.086"></polygon>
        </g>
    </g>
</svg>