<?xml version="1.0" encoding="UTF-8"?>
<svg width="12px" height="21px" viewBox="0 0 12 21" version="1.1" xmlns="http://www.w3.org/2000/svg" xmlns:xlink="http://www.w3.org/1999/xlink">
    <!-- Generator: Sketch 45.2 (43514) - http://www.bohemiancoding.com/sketch -->
    <title>slick-right</title>
    <desc>Created with Sketch.</desc>
    <defs></defs>
    <g id="Page-1" stroke="none" stroke-width="1" fill="none" fill-rule="evenodd">
        <path d="M11.7522321,9.96651786 C11.8861614,10.1004471 11.953125,10.2544634 11.953125,10.4285714 C11.953125,10.6026794 11.8861614,10.7566958 11.7522321,10.890625 L2.390625,20.2522321 C2.25669576,20.3861614 2.10267944,20.453125 1.92857143,20.453125 C1.75446342,20.453125 1.6004471,20.3861614 1.46651786,20.2522321 L0.462053571,19.2477679 C0.32812433,19.1138386 0.261160714,18.9598223 0.261160714,18.7857143 C0.261160714,18.6116063 0.32812433,18.45759 0.462053571,18.3236607 L8.35714286,10.4285714 L0.462053571,2.53348214 C0.32812433,2.3995529 0.261160714,2.24553658 0.261160714,2.07142857 C0.261160714,1.89732056 0.32812433,1.74330424 0.462053571,1.609375 L1.46651786,0.604910714 C1.6004471,0.470981473 1.75446342,0.404017857 1.92857143,0.404017857 C2.10267944,0.404017857 2.25669576,0.470981473 2.390625,0.604910714 L11.7522321,9.96651786 Z" id="slick-right" fill="#333631"></path>
    </g>
</svg>