<?xml version="1.0" encoding="UTF-8"?>
<svg width="26px" height="32px" viewBox="0 0 26 32" version="1.1" xmlns="http://www.w3.org/2000/svg" xmlns:xlink="http://www.w3.org/1999/xlink">
    <!-- Generator: Sketch 45.2 (43514) - http://www.bohemiancoding.com/sketch -->
    <title>user</title>
    <desc>Created with Sketch.</desc>
    <defs></defs>
    <g id="Page-1" stroke="none" stroke-width="1" fill="none" fill-rule="evenodd">
        <g id="Artboard" transform="translate(-108.000000, -96.000000)" fill="#AD8261">
            <path d="M133.714286,122.247768 C133.714286,123.707597 133.295763,124.959816 132.458705,126.004464 C131.621648,127.049112 130.613845,127.571429 129.435268,127.571429 L112.279018,127.571429 C111.100441,127.571429 110.092638,127.049112 109.25558,126.004464 C108.418523,124.959816 108,123.707597 108,122.247768 C108,121.109369 108.056919,120.034603 108.170759,119.023438 C108.284599,118.012272 108.495534,116.994425 108.803571,115.969866 C109.111609,114.945307 109.503346,114.068084 109.978795,113.33817 C110.454243,112.608255 111.083701,112.012279 111.867188,111.550223 C112.650674,111.088167 113.551334,110.857143 114.569196,110.857143 C116.323669,112.571437 118.419631,113.428571 120.857143,113.428571 C123.294655,113.428571 125.390616,112.571437 127.145089,110.857143 C128.162952,110.857143 129.063612,111.088167 129.847098,111.550223 C130.630584,112.012279 131.260042,112.608255 131.735491,113.33817 C132.21094,114.068084 132.602677,114.945307 132.910714,115.969866 C133.218752,116.994425 133.429687,118.012272 133.543527,119.023438 C133.657367,120.034603 133.714286,121.109369 133.714286,122.247768 Z M126.301339,98.984375 C127.81474,100.484383 128.571429,102.299096 128.571429,104.428571 C128.571429,106.558046 127.818088,108.376109 126.311384,109.882812 C124.80468,111.389516 122.986618,112.142857 120.857143,112.142857 C118.727668,112.142857 116.909606,111.389516 115.402902,109.882812 C113.896198,108.376109 113.142857,106.558046 113.142857,104.428571 C113.142857,102.299096 113.896198,100.481034 115.402902,98.9743304 C116.909606,97.4676264 118.727668,96.7142857 120.857143,96.7142857 C122.986618,96.7142857 124.801332,97.4709746 126.301339,98.984375 Z" id="user"></path>
        </g>
    </g>
</svg>